# xmcd CD database file generated by Grip 2.94
# 
# Track frame offsets:
#       150
#       18721
#       31918
#       47272
#       60836
#       74205
#       88070
#       101155
#       114095
#       133774
#       148286
#       161994
#       177752
# 
# Disc length: 2618 seconds
# 
# Revision: 3
# Processed by: cddbd v1.4b41PL1 Copyright (c) Steve Scherf et al.
# Submitted via: Grip 2.94
# 
DISCID=b70a380d
DTITLE=Lisa Evans - Come on In
DYEAR=1900
DGENRE=
TTITLE0=When I Close My Eyes
TTITLE1=You Gave Me A Heartache
TTITLE2=Play Me Like A Violin
TTITLE3=Nothing Else Matters
TTITLE4=Dayton
TTITLE5=Cross The Bridge
TTITLE6=Come On In
TTITLE7=Light Your Candle
TTITLE8=Mama's Never Been So Sad
TTITLE9=Television War
TTITLE10=Lucky Charm
TTITLE11=Cryin' A River To Mexico
TTITLE12=Everything That Counts
EXTD=
EXTT0=
EXTT1=
EXTT2=
EXTT3=
EXTT4=
EXTT5=
EXTT6=
EXTT7=
EXTT8=
EXTT9=
EXTT10=
EXTT11=
EXTT12=
PLAYORDER=
